{
 "cells": [
  {
   "cell_type": "code",
   "execution_count": 1,
   "metadata": {},
   "outputs": [
    {
     "name": "stdout",
     "output_type": "stream",
     "text": [
      "Video downloaded to Drone_Video1.mp4\n",
      "Captions downloaded to FiveEyes_captions1.srt\n"
     ]
    }
   ],
   "source": [
    "from pytube import YouTube\n",
    "from youtube_transcript_api import YouTubeTranscriptApi\n",
    "import ssl\n",
    "\n",
    "class YouTubeDownloader:\n",
    "    def __init__(self, video_url):\n",
    "        self.video_url = video_url\n",
    "\n",
    "    def download_video(self, output_path):\n",
    "        try:\n",
    "            # Disable SSL verification\n",
    "            ssl._create_default_https_context = ssl._create_unverified_context\n",
    "            yt = YouTube(self.video_url)\n",
    "            stream = yt.streams.get_highest_resolution()\n",
    "            stream.download(output_path)\n",
    "            print(f\"Video downloaded to {output_path}\")\n",
    "        except Exception as e:\n",
    "            print(f\"Error downloading video: {e}\")\n",
    "\n",
    "    def download_captions(self, output_path):\n",
    "        try:\n",
    "            # Disable SSL verification\n",
    "            ssl._create_default_https_context = ssl._create_unverified_context\n",
    "            srt = YouTubeTranscriptApi.get_transcript(self.video_url)\n",
    "            with open(output_path, \"w\", encoding=\"utf-8\") as f:\n",
    "                for caption in srt:\n",
    "                    f.write(\"{}\\n\".format(caption['text']))\n",
    "            print(f\"Captions downloaded to {output_path}\")\n",
    "        except Exception as e:\n",
    "            print(f\"Error downloading captions: {e}\")\n",
    "\n",
    "if __name__ == \"__main__\":\n",
    "    video_url = \"https://www.youtube.com/watch?v=DhmZ6W1UAv4\"\n",
    "    video_url2 = \"DhmZ6W1UAv4\"\n",
    "    output_video_path = \"Drone_Video1.mp4\"\n",
    "    output_captions_path = \"FiveEyes_captions1.srt\"\n",
    "\n",
    "    downloader = YouTubeDownloader(video_url)\n",
    "    downloader2 = YouTubeDownloader(video_url2)\n",
    "    downloader.download_video(output_video_path)\n",
    "    downloader2.download_captions(output_captions_path)\n"
   ]
  },
  {
   "cell_type": "code",
   "execution_count": 14,
   "metadata": {},
   "outputs": [
    {
     "name": "stderr",
     "output_type": "stream",
     "text": [
      "ffmpeg version 6.0 Copyright (c) 2000-2023 the FFmpeg developers\n",
      "  built with Apple clang version 14.0.3 (clang-1403.0.22.14.1)\n",
      "  configuration: --prefix=/usr/local/Cellar/ffmpeg/6.0_1 --enable-shared --enable-pthreads --enable-version3 --cc=clang --host-cflags= --host-ldflags= --enable-ffplay --enable-gnutls --enable-gpl --enable-libaom --enable-libaribb24 --enable-libbluray --enable-libdav1d --enable-libjxl --enable-libmp3lame --enable-libopus --enable-librav1e --enable-librist --enable-librubberband --enable-libsnappy --enable-libsrt --enable-libsvtav1 --enable-libtesseract --enable-libtheora --enable-libvidstab --enable-libvmaf --enable-libvorbis --enable-libvpx --enable-libwebp --enable-libx264 --enable-libx265 --enable-libxml2 --enable-libxvid --enable-lzma --enable-libfontconfig --enable-libfreetype --enable-frei0r --enable-libass --enable-libopencore-amrnb --enable-libopencore-amrwb --enable-libopenjpeg --enable-libspeex --enable-libsoxr --enable-libzmq --enable-libzimg --disable-libjack --disable-indev=jack --enable-videotoolbox --enable-audiotoolbox\n",
      "  libavutil      58.  2.100 / 58.  2.100\n",
      "  libavcodec     60.  3.100 / 60.  3.100\n",
      "  libavformat    60.  3.100 / 60.  3.100\n",
      "  libavdevice    60.  1.100 / 60.  1.100\n",
      "  libavfilter     9.  3.100 /  9.  3.100\n",
      "  libswscale      7.  1.100 /  7.  1.100\n",
      "  libswresample   4. 10.100 /  4. 10.100\n",
      "  libpostproc    57.  1.100 / 57.  1.100\n",
      "Input #0, mov,mp4,m4a,3gp,3g2,mj2, from 'drone1_trajectory.mp4':\n",
      "  Metadata:\n",
      "    major_brand     : isom\n",
      "    minor_version   : 512\n",
      "    compatible_brands: isomiso2mp41\n",
      "    encoder         : Lavf60.3.100\n",
      "  Duration: 00:00:45.55, start: 0.000000, bitrate: 863 kb/s\n",
      "  Stream #0:0[0x1](und): Video: mpeg4 (Simple Profile) (mp4v / 0x7634706D), yuv420p, 1280x720 [SAR 1:1 DAR 16:9], 862 kb/s, 20 fps, 20 tbr, 10240 tbn (default)\n",
      "    Metadata:\n",
      "      handler_name    : VideoHandler\n",
      "      vendor_id       : [0][0][0][0]\n",
      "Stream mapping:\n",
      "  Stream #0:0 -> #0:0 (mpeg4 (native) -> h264 (libx264))\n",
      "Press [q] to stop, [?] for help\n",
      "[libx264 @ 0x7fe17ff15480] using SAR=1/1\n",
      "[libx264 @ 0x7fe17ff15480] using cpu capabilities: MMX2 SSE2Fast SSSE3 SSE4.2 AVX FMA3 BMI2 AVX2\n",
      "[libx264 @ 0x7fe17ff15480] profile High, level 3.1, 4:2:0, 8-bit\n",
      "[libx264 @ 0x7fe17ff15480] 264 - core 164 r3108 31e19f9 - H.264/MPEG-4 AVC codec - Copyleft 2003-2023 - http://www.videolan.org/x264.html - options: cabac=1 ref=3 deblock=1:0:0 analyse=0x3:0x113 me=hex subme=7 psy=1 psy_rd=1.00:0.00 mixed_ref=1 me_range=16 chroma_me=1 trellis=1 8x8dct=1 cqm=0 deadzone=21,11 fast_pskip=1 chroma_qp_offset=-2 threads=6 lookahead_threads=1 sliced_threads=0 nr=0 decimate=1 interlaced=0 bluray_compat=0 constrained_intra=0 bframes=3 b_pyramid=2 b_adapt=1 b_bias=0 direct=1 weightb=1 open_gop=0 weightp=2 keyint=250 keyint_min=20 scenecut=40 intra_refresh=0 rc_lookahead=40 rc=crf mbtree=1 crf=23.0 qcomp=0.60 qpmin=0 qpmax=69 qpstep=4 ip_ratio=1.40 aq=1:1.00\n",
      "Output #0, mp4, to 'drone_output_1.mp4':\n",
      "  Metadata:\n",
      "    major_brand     : isom\n",
      "    minor_version   : 512\n",
      "    compatible_brands: isomiso2mp41\n",
      "    encoder         : Lavf60.3.100\n",
      "  Stream #0:0(und): Video: h264 (avc1 / 0x31637661), yuv420p(progressive), 1280x720 [SAR 1:1 DAR 16:9], q=2-31, 20 fps, 10240 tbn (default)\n",
      "    Metadata:\n",
      "      handler_name    : VideoHandler\n",
      "      vendor_id       : [0][0][0][0]\n",
      "      encoder         : Lavc60.3.100 libx264\n",
      "    Side data:\n",
      "      cpb: bitrate max/min/avg: 0/0/0 buffer size: 0 vbv_delay: N/A\n",
      "frame=  911 fps= 51 q=-1.0 Lsize=    2860kB time=00:00:45.40 bitrate= 516.1kbits/s speed=2.56x     \n",
      "video:2849kB audio:0kB subtitle:0kB other streams:0kB global headers:0kB muxing overhead: 0.398341%\n",
      "[libx264 @ 0x7fe17ff15480] frame I:4     Avg QP:14.03  size: 40799\n",
      "[libx264 @ 0x7fe17ff15480] frame P:264   Avg QP:16.29  size:  7382\n",
      "[libx264 @ 0x7fe17ff15480] frame B:643   Avg QP:22.30  size:  1251\n",
      "[libx264 @ 0x7fe17ff15480] consecutive B-frames:  3.5%  4.8%  6.9% 84.7%\n",
      "[libx264 @ 0x7fe17ff15480] mb I  I16..4: 23.2% 67.5%  9.3%\n",
      "[libx264 @ 0x7fe17ff15480] mb P  I16..4:  1.9%  7.6%  0.4%  P16..4: 20.1%  5.1%  3.4%  0.0%  0.0%    skip:61.5%\n",
      "[libx264 @ 0x7fe17ff15480] mb B  I16..4:  0.1%  0.5%  0.0%  B16..8: 19.5%  0.6%  0.1%  direct: 0.9%  skip:78.2%  L0:54.3% L1:44.0% BI: 1.6%\n",
      "[libx264 @ 0x7fe17ff15480] 8x8 transform intra:75.9% inter:82.2%\n",
      "[libx264 @ 0x7fe17ff15480] coded y,uvDC,uvAC intra: 46.9% 63.0% 14.9% inter: 2.5% 5.2% 0.2%\n",
      "[libx264 @ 0x7fe17ff15480] i16 v,h,dc,p: 27% 40% 21% 13%\n",
      "[libx264 @ 0x7fe17ff15480] i8 v,h,dc,ddl,ddr,vr,hd,vl,hu: 22% 31% 39%  2%  1%  1%  1%  1%  2%\n",
      "[libx264 @ 0x7fe17ff15480] i4 v,h,dc,ddl,ddr,vr,hd,vl,hu: 39% 36% 14%  2%  2%  2%  2%  1%  2%\n",
      "[libx264 @ 0x7fe17ff15480] i8c dc,h,v,p: 38% 36% 21%  5%\n",
      "[libx264 @ 0x7fe17ff15480] Weighted P-Frames: Y:0.4% UV:0.4%\n",
      "[libx264 @ 0x7fe17ff15480] ref P L0: 74.3%  3.5% 14.4%  7.8%  0.0%\n",
      "[libx264 @ 0x7fe17ff15480] ref B L0: 75.8% 19.9%  4.4%\n",
      "[libx264 @ 0x7fe17ff15480] ref B L1: 92.4%  7.6%\n",
      "[libx264 @ 0x7fe17ff15480] kb/s:512.21\n"
     ]
    }
   ],
   "source": [
    "import cv2\n",
    "from filterpy.kalman import KalmanFilter\n",
    "import numpy as np\n",
    "import subprocess\n",
    "\n",
    "# Function to detect drone position in a frame (using computer vision)\n",
    "def detect_drone(frame):\n",
    "    # Example: Using contour detection to find the drone position\n",
    "    gray_frame = cv2.cvtColor(frame, cv2.COLOR_BGR2GRAY)\n",
    "    _, threshold = cv2.threshold(gray_frame, 240, 255, cv2.THRESH_BINARY)\n",
    "    \n",
    "    contours, _ = cv2.findContours(threshold, cv2.RETR_TREE, cv2.CHAIN_APPROX_SIMPLE)\n",
    "    \n",
    "    if contours:  # If contours are found\n",
    "        contour = max(contours, key=cv2.contourArea)\n",
    "        x, y, w, h = cv2.boundingRect(contour)\n",
    "        drone_position = (x + w // 2, y + h // 2)  # Center of the bounding box\n",
    "        \n",
    "        # Draw rectangle around the detected drone (for visualization)\n",
    "        cv2.rectangle(frame, (x, y), (x + w, y + h), (0, 255, 0), 2)\n",
    "        \n",
    "        return drone_position\n",
    "    else:\n",
    "        return None\n",
    "\n",
    "# Initialize Kalman filter\n",
    "kf = KalmanFilter(dim_x=4, dim_z=2)\n",
    "kf.x = np.array([0, 0, 0, 0])  # Initial state: [x, y, dx/dt, dy/dt]\n",
    "\n",
    "# Define measurement matrix (drone position)\n",
    "kf.H = np.array([[1, 0, 0, 0],\n",
    "                 [0, 1, 0, 0]])\n",
    "\n",
    "# Define measurement uncertainty\n",
    "kf.R = np.eye(2) * 0.01  # Adjust the uncertainty based on your scenario\n",
    "\n",
    "# Define process uncertainty\n",
    "kf.P *= 10\n",
    "\n",
    "# Define transition matrix\n",
    "dt = 1.0  # Time step (you may adjust this based on your video frame rate)\n",
    "kf.F = np.array([[1, 0, dt, 0],\n",
    "                 [0, 1, 0, dt],\n",
    "                 [0, 0, 1, 0],\n",
    "                 [0, 0, 0, 1]])\n",
    "\n",
    "frames_with_drone = []\n",
    "trajectory_points = []\n",
    "\n",
    "# Process the video\n",
    "video_path = 'Drone Tracking 1.mp4'  # Replace with your video path\n",
    "cap = cv2.VideoCapture(video_path)\n",
    "\n",
    "while cap.isOpened():\n",
    "    ret, frame = cap.read()\n",
    "    if not ret:\n",
    "        break\n",
    "    \n",
    "    # Detect drone position in the frame\n",
    "    drone_pos = detect_drone(frame)\n",
    "    \n",
    "    # Perform Kalman filtering\n",
    "    if drone_pos is not None:  # Ensure drone is detected\n",
    "        measurement = np.array(drone_pos)\n",
    "        kf.predict()\n",
    "        kf.update(measurement)\n",
    "\n",
    "        # Get filtered drone position\n",
    "        filtered_drone_pos = kf.x[:2]\n",
    "\n",
    "        # Store frame with the drone\n",
    "        frames_with_drone.append(frame.copy())\n",
    "\n",
    "        # Store drone position for trajectory plotting\n",
    "        trajectory_points.append(tuple(map(int, filtered_drone_pos)))\n",
    "        \n",
    "        # Draw bounding box around the detected drone\n",
    "        x, y = drone_pos\n",
    "        cv2.rectangle(frame, (x - 20, y - 20), (x + 20, y + 20), (0, 255, 0), 2)\n",
    "\n",
    "        # Display the frame with the filtered drone position and bounding box\n",
    "        cv2.imshow('Drone Tracking', frame)\n",
    "        if cv2.waitKey(1) & 0xFF == ord('q'):\n",
    "            break\n",
    "\n",
    "cap.release()\n",
    "cv2.destroyAllWindows()\n",
    "\n",
    "# Create a new video from frames with the drone and trajectory\n",
    "if frames_with_drone:\n",
    "    # Draw trajectory on frames\n",
    "    for i in range(1, len(trajectory_points)):\n",
    "        cv2.line(frames_with_drone[i], trajectory_points[i - 1], trajectory_points[i], (255, 0, 0), 2)\n",
    "\n",
    "    # Save frames with drone and trajectory as a new video\n",
    "    output_video = 'drone1_trajectory.mp4'\n",
    "    height, width, _ = frames_with_drone[0].shape\n",
    "    fourcc = cv2.VideoWriter_fourcc(*'mp4v')\n",
    "    out = cv2.VideoWriter(output_video, fourcc, 20.0, (width, height))\n",
    "\n",
    "    for frame in frames_with_drone:\n",
    "        out.write(frame)\n",
    "\n",
    "    out.release()\n",
    "\n",
    "    # Use FFmpeg to convert the output video to the desired format and compress\n",
    "    subprocess.call(['ffmpeg', '-i', output_video, '-c:v', 'libx264', '-crf', '23', 'drone_output_1.mp4'])\n"
   ]
  },
  {
   "cell_type": "markdown",
   "metadata": {},
   "source": [
    "# Tracking Drone 2 - Video 2"
   ]
  },
  {
   "cell_type": "code",
   "execution_count": 4,
   "metadata": {},
   "outputs": [
    {
     "name": "stdout",
     "output_type": "stream",
     "text": [
      "Video downloaded to Drone_Video2.mp4\n"
     ]
    }
   ],
   "source": [
    "from pytube import YouTube\n",
    "from youtube_transcript_api import YouTubeTranscriptApi\n",
    "import ssl\n",
    "\n",
    "class YouTubeDownloader:\n",
    "    def __init__(self, video_url):\n",
    "        self.video_url = video_url\n",
    "\n",
    "    def download_video(self, output_path):\n",
    "        try:\n",
    "            # Disable SSL verification\n",
    "            ssl._create_default_https_context = ssl._create_unverified_context\n",
    "            yt = YouTube(self.video_url)\n",
    "            stream = yt.streams.get_highest_resolution()\n",
    "            stream.download(output_path)\n",
    "            print(f\"Video downloaded to {output_path}\")\n",
    "        except Exception as e:\n",
    "            print(f\"Error downloading video: {e}\")\n",
    "\n",
    "if __name__ == \"__main__\":\n",
    "    video_url = \"https://www.youtube.com/watch?v=YrydHPwRelI&themeRefresh=1\"\n",
    "  \n",
    "    output_video_path = \"Drone_Video2.mp4\"\n",
    "\n",
    "    downloader = YouTubeDownloader(video_url)\n",
    "  \n",
    "    downloader.download_video(output_video_path)\n",
    "  \n"
   ]
  },
  {
   "cell_type": "code",
   "execution_count": 12,
   "metadata": {},
   "outputs": [
    {
     "name": "stderr",
     "output_type": "stream",
     "text": [
      "ffmpeg version 6.0 Copyright (c) 2000-2023 the FFmpeg developers\n",
      "  built with Apple clang version 14.0.3 (clang-1403.0.22.14.1)\n",
      "  configuration: --prefix=/usr/local/Cellar/ffmpeg/6.0_1 --enable-shared --enable-pthreads --enable-version3 --cc=clang --host-cflags= --host-ldflags= --enable-ffplay --enable-gnutls --enable-gpl --enable-libaom --enable-libaribb24 --enable-libbluray --enable-libdav1d --enable-libjxl --enable-libmp3lame --enable-libopus --enable-librav1e --enable-librist --enable-librubberband --enable-libsnappy --enable-libsrt --enable-libsvtav1 --enable-libtesseract --enable-libtheora --enable-libvidstab --enable-libvmaf --enable-libvorbis --enable-libvpx --enable-libwebp --enable-libx264 --enable-libx265 --enable-libxml2 --enable-libxvid --enable-lzma --enable-libfontconfig --enable-libfreetype --enable-frei0r --enable-libass --enable-libopencore-amrnb --enable-libopencore-amrwb --enable-libopenjpeg --enable-libspeex --enable-libsoxr --enable-libzmq --enable-libzimg --disable-libjack --disable-indev=jack --enable-videotoolbox --enable-audiotoolbox\n",
      "  libavutil      58.  2.100 / 58.  2.100\n",
      "  libavcodec     60.  3.100 / 60.  3.100\n",
      "  libavformat    60.  3.100 / 60.  3.100\n",
      "  libavdevice    60.  1.100 / 60.  1.100\n",
      "  libavfilter     9.  3.100 /  9.  3.100\n",
      "  libswscale      7.  1.100 /  7.  1.100\n",
      "  libswresample   4. 10.100 /  4. 10.100\n",
      "  libpostproc    57.  1.100 / 57.  1.100\n",
      "Input #0, mov,mp4,m4a,3gp,3g2,mj2, from 'drone2_trajectory.mp4':\n",
      "  Metadata:\n",
      "    major_brand     : isom\n",
      "    minor_version   : 512\n",
      "    compatible_brands: isomiso2mp41\n",
      "    encoder         : Lavf60.3.100\n",
      "  Duration: 00:01:21.65, start: 0.000000, bitrate: 1480 kb/s\n",
      "  Stream #0:0[0x1](und): Video: mpeg4 (Simple Profile) (mp4v / 0x7634706D), yuv420p, 1280x720 [SAR 1:1 DAR 16:9], 1479 kb/s, 20 fps, 20 tbr, 10240 tbn (default)\n",
      "    Metadata:\n",
      "      handler_name    : VideoHandler\n",
      "      vendor_id       : [0][0][0][0]\n",
      "Stream mapping:\n",
      "  Stream #0:0 -> #0:0 (mpeg4 (native) -> h264 (libx264))\n",
      "Press [q] to stop, [?] for help\n",
      "[libx264 @ 0x7fdb78006b40] using SAR=1/1\n",
      "[libx264 @ 0x7fdb78006b40] using cpu capabilities: MMX2 SSE2Fast SSSE3 SSE4.2 AVX FMA3 BMI2 AVX2\n",
      "[libx264 @ 0x7fdb78006b40] profile High, level 3.1, 4:2:0, 8-bit\n",
      "[libx264 @ 0x7fdb78006b40] 264 - core 164 r3108 31e19f9 - H.264/MPEG-4 AVC codec - Copyleft 2003-2023 - http://www.videolan.org/x264.html - options: cabac=1 ref=3 deblock=1:0:0 analyse=0x3:0x113 me=hex subme=7 psy=1 psy_rd=1.00:0.00 mixed_ref=1 me_range=16 chroma_me=1 trellis=1 8x8dct=1 cqm=0 deadzone=21,11 fast_pskip=1 chroma_qp_offset=-2 threads=6 lookahead_threads=1 sliced_threads=0 nr=0 decimate=1 interlaced=0 bluray_compat=0 constrained_intra=0 bframes=3 b_pyramid=2 b_adapt=1 b_bias=0 direct=1 weightb=1 open_gop=0 weightp=2 keyint=250 keyint_min=20 scenecut=40 intra_refresh=0 rc_lookahead=40 rc=crf mbtree=1 crf=23.0 qcomp=0.60 qpmin=0 qpmax=69 qpstep=4 ip_ratio=1.40 aq=1:1.00\n",
      "Output #0, mp4, to 'drone_output_2.mp4':\n",
      "  Metadata:\n",
      "    major_brand     : isom\n",
      "    minor_version   : 512\n",
      "    compatible_brands: isomiso2mp41\n",
      "    encoder         : Lavf60.3.100\n",
      "  Stream #0:0(und): Video: h264 (avc1 / 0x31637661), yuv420p(progressive), 1280x720 [SAR 1:1 DAR 16:9], q=2-31, 20 fps, 10240 tbn (default)\n",
      "    Metadata:\n",
      "      handler_name    : VideoHandler\n",
      "      vendor_id       : [0][0][0][0]\n",
      "      encoder         : Lavc60.3.100 libx264\n",
      "    Side data:\n",
      "      cpb: bitrate max/min/avg: 0/0/0 buffer size: 0 vbv_delay: N/A\n",
      "frame= 1633 fps= 32 q=-1.0 Lsize=    8370kB time=00:01:21.50 bitrate= 841.3kbits/s speed=1.62x     \n",
      "video:8351kB audio:0kB subtitle:0kB other streams:0kB global headers:0kB muxing overhead: 0.230885%\n",
      "[libx264 @ 0x7fdb78006b40] frame I:7     Avg QP:16.67  size: 62105\n",
      "[libx264 @ 0x7fdb78006b40] frame P:551   Avg QP:19.31  size: 12407\n",
      "[libx264 @ 0x7fdb78006b40] frame B:1075  Avg QP:24.40  size:  1190\n",
      "[libx264 @ 0x7fdb78006b40] consecutive B-frames:  7.8% 10.0%  9.4% 72.7%\n",
      "[libx264 @ 0x7fdb78006b40] mb I  I16..4:  9.8% 82.4%  7.7%\n",
      "[libx264 @ 0x7fdb78006b40] mb P  I16..4:  0.9%  9.6%  0.5%  P16..4: 37.4%  8.1%  4.7%  0.0%  0.0%    skip:38.7%\n",
      "[libx264 @ 0x7fdb78006b40] mb B  I16..4:  0.1%  0.5%  0.1%  B16..8: 24.3%  0.2%  0.0%  direct: 0.0%  skip:74.8%  L0:50.3% L1:48.1% BI: 1.5%\n",
      "[libx264 @ 0x7fdb78006b40] 8x8 transform intra:86.0% inter:84.2%\n",
      "[libx264 @ 0x7fdb78006b40] coded y,uvDC,uvAC intra: 75.4% 58.5% 10.1% inter: 5.7% 6.4% 0.4%\n",
      "[libx264 @ 0x7fdb78006b40] i16 v,h,dc,p:  8% 30% 11% 51%\n",
      "[libx264 @ 0x7fdb78006b40] i8 v,h,dc,ddl,ddr,vr,hd,vl,hu: 17% 35% 28%  3%  3%  2%  5%  2%  4%\n",
      "[libx264 @ 0x7fdb78006b40] i4 v,h,dc,ddl,ddr,vr,hd,vl,hu: 19% 29% 23%  5%  5%  3%  6%  3%  6%\n",
      "[libx264 @ 0x7fdb78006b40] i8c dc,h,v,p: 45% 32% 19%  4%\n",
      "[libx264 @ 0x7fdb78006b40] Weighted P-Frames: Y:0.9% UV:0.0%\n",
      "[libx264 @ 0x7fdb78006b40] ref P L0: 69.6%  8.2% 17.2%  4.9%  0.0%\n",
      "[libx264 @ 0x7fdb78006b40] ref B L0: 80.6% 17.1%  2.4%\n",
      "[libx264 @ 0x7fdb78006b40] ref B L1: 93.9%  6.1%\n",
      "[libx264 @ 0x7fdb78006b40] kb/s:837.80\n"
     ]
    }
   ],
   "source": [
    "import cv2\n",
    "from filterpy.kalman import KalmanFilter\n",
    "import numpy as np\n",
    "import subprocess\n",
    "\n",
    "# Function to detect drone position in a frame (using computer vision)\n",
    "def detect_drone(frame, background_subtractor):\n",
    "    # Apply background subtraction\n",
    "    fg_mask = background_subtractor.apply(frame)\n",
    "    \n",
    "    # Further processing (thresholding, morphology, contour detection)\n",
    "    fg_mask = cv2.threshold(fg_mask, 240, 255, cv2.THRESH_BINARY)[1]\n",
    "    fg_mask = cv2.erode(fg_mask, None, iterations=2)\n",
    "    fg_mask = cv2.dilate(fg_mask, None, iterations=5)\n",
    "    \n",
    "    contours, _ = cv2.findContours(fg_mask, cv2.RETR_EXTERNAL, cv2.CHAIN_APPROX_SIMPLE)\n",
    "    \n",
    "    if contours:\n",
    "        contour = max(contours, key=cv2.contourArea)\n",
    "        x, y, w, h = cv2.boundingRect(contour)\n",
    "        drone_position = (x + w // 2, y + h // 2)  # Center of the bounding box\n",
    "        \n",
    "        # Draw rectangle around the detected drone (for visualization)\n",
    "        cv2.rectangle(frame, (x, y), (x + w, y + h), (0, 255, 0), 2)\n",
    "        \n",
    "        return drone_position\n",
    "    else:\n",
    "        return None\n",
    "\n",
    "# Prepare background subtractor\n",
    "background_subtractor = cv2.createBackgroundSubtractorMOG2(history=100, detectShadows=False)\n",
    "\n",
    "# Initialize Kalman filter\n",
    "kf = KalmanFilter(dim_x=4, dim_z=2)\n",
    "kf.x = np.array([0, 0, 0, 0])  # Initial state: [x, y, dx/dt, dy/dt]\n",
    "\n",
    "# Define measurement matrix (drone position)\n",
    "kf.H = np.array([[1, 0, 0, 0],\n",
    "                 [0, 1, 0, 0]])\n",
    "\n",
    "# Define measurement uncertainty\n",
    "kf.R = np.eye(2) * 0.05  # Adjust the uncertainty based on your scenario\n",
    "\n",
    "# Define process uncertainty\n",
    "kf.P *= 10\n",
    "\n",
    "# Define transition matrix\n",
    "dt = 2.0  # Time step (you may adjust this based on your video frame rate)\n",
    "kf.F = np.array([[1, 0, dt, 0],\n",
    "                 [0, 1, 0, dt],\n",
    "                 [0, 0, 1, 0],\n",
    "                 [0, 0, 0, 1]])\n",
    "\n",
    "frames_with_drone = []\n",
    "trajectory_points = []\n",
    "\n",
    "# Process the video\n",
    "video_path = 'Drone Tracking 2.mp4'  # Replace with your video path\n",
    "cap = cv2.VideoCapture(video_path)\n",
    "\n",
    "while cap.isOpened():\n",
    "    ret, frame = cap.read()\n",
    "    if not ret:\n",
    "        break\n",
    "    \n",
    "    # Detect drone position in the frame\n",
    "    drone_pos = detect_drone(frame, background_subtractor)\n",
    "    \n",
    "    # Perform Kalman filtering\n",
    "    if drone_pos is not None:  # Ensure drone is detected\n",
    "        measurement = np.array(drone_pos)\n",
    "        kf.predict()\n",
    "        kf.update(measurement)\n",
    "\n",
    "        # Get filtered drone position\n",
    "        filtered_drone_pos = kf.x[:2]\n",
    "\n",
    "        # Store frame with the drone\n",
    "        frames_with_drone.append(frame.copy())\n",
    "\n",
    "        # Store drone position for trajectory plotting\n",
    "        trajectory_points.append(tuple(map(int, filtered_drone_pos)))\n",
    "        \n",
    "        # Draw bounding box around the detected drone\n",
    "        x, y = drone_pos\n",
    "        cv2.rectangle(frame, (x - 20, y - 20), (x + 20, y + 20), (0, 255, 0), 2)\n",
    "\n",
    "        # Display the frame with the filtered drone position and bounding box\n",
    "        cv2.imshow('Drone Tracking', frame)\n",
    "        if cv2.waitKey(1) & 0xFF == ord('q'):\n",
    "            break\n",
    "\n",
    "cap.release()\n",
    "cv2.destroyAllWindows()\n",
    "\n",
    "# Create a new video from frames with the drone and trajectory\n",
    "if frames_with_drone:\n",
    "    # Draw trajectory on frames\n",
    "    for i in range(1, len(trajectory_points)):\n",
    "        cv2.line(frames_with_drone[i], trajectory_points[i - 1], trajectory_points[i], (255, 0, 0), 2)\n",
    "\n",
    "    # Save frames with drone and trajectory as a new video\n",
    "    output_video = 'drone2_trajectory.mp4'\n",
    "    height, width, _ = frames_with_drone[0].shape\n",
    "    fourcc = cv2.VideoWriter_fourcc(*'mp4v')\n",
    "    out = cv2.VideoWriter(output_video, fourcc, 20.0, (width, height))\n",
    "\n",
    "    for frame in frames_with_drone:\n",
    "        out.write(frame)\n",
    "\n",
    "    out.release()\n",
    "\n",
    "    # Use FFmpeg to convert the output video to the desired format and compress\n",
    "    subprocess.call(['ffmpeg', '-i', output_video, '-c:v', 'libx264', '-crf', '23', 'drone_output_2.mp4'])\n"
   ]
  }
 ],
 "metadata": {
  "kernelspec": {
   "display_name": "Python 3",
   "language": "python",
   "name": "python3"
  },
  "language_info": {
   "codemirror_mode": {
    "name": "ipython",
    "version": 3
   },
   "file_extension": ".py",
   "mimetype": "text/x-python",
   "name": "python",
   "nbconvert_exporter": "python",
   "pygments_lexer": "ipython3",
   "version": "3.11.2"
  }
 },
 "nbformat": 4,
 "nbformat_minor": 2
}
